# Blender v2.93.0 OBJ File: 'bush.blend'
# www.blender.org
mtllib bush.mtl
o krik_Circle
v 0.000000 1.458075 -1.702384
v -1.000637 1.458075 -1.377258
v -1.619064 1.458075 -0.526066
v -1.619064 1.458075 0.526066
v -1.000636 1.458075 1.377258
v 0.000000 1.458075 1.702384
v 1.000637 1.458075 1.377258
v 1.619064 1.458075 0.526066
v 1.619064 1.458075 -0.526066
v 1.000636 1.458075 -1.377259
v 0.000000 0.883050 -1.967188
v -1.156284 0.883050 -1.591488
v -1.870907 0.883050 -0.607894
v -1.870907 0.883050 0.607895
v -1.156284 0.883050 1.591488
v 0.000000 0.883050 1.967188
v 1.156284 0.883050 1.591488
v 1.870907 0.883050 0.607895
v 1.870907 0.883050 -0.607895
v 1.156284 0.883050 -1.591489
v -0.298096 1.996310 -0.917444
v 0.000000 2.214322 -0.000000
v -0.964658 1.996310 0.000000
v -0.298096 1.996310 0.917444
v 0.780425 1.996310 0.567012
v 0.780424 1.996310 -0.567012
v 0.000000 0.139566 -1.950301
v -1.146358 0.139566 -1.577827
v -1.854847 0.139566 -0.602676
v -1.854847 0.139566 0.602676
v -1.146358 0.139566 1.577827
v 0.000000 0.139566 1.950301
v 1.146358 0.139566 1.577827
v 1.854847 0.139566 0.602676
v 1.854847 0.139566 -0.602676
v 1.146358 0.139566 -1.577827
v -0.000000 -0.371703 -1.746830
v -1.026761 -0.371703 -1.413216
v -1.661334 -0.371703 -0.539800
v -1.661334 -0.371703 0.539800
v -1.026761 -0.371703 1.413215
v 0.000000 -0.371703 1.746830
v 1.026761 -0.371703 1.413215
v 1.661334 -0.371703 0.539800
v 1.661334 -0.371703 -0.539801
v 1.026761 -0.371703 -1.413216
vt 0.462609 0.825828
vt 0.462609 0.665573
vt 0.534151 0.653109
vt 0.534151 0.838291
vt 0.992998 0.329388
vt 0.993767 0.459036
vt 0.913929 0.491667
vt 0.913040 0.341851
vt 0.710722 0.039484
vt 0.727044 0.169133
vt 0.655502 0.156669
vt 0.636642 0.006854
vt 0.478931 0.955476
vt 0.553012 0.988106
vt 0.992998 0.169133
vt 0.913040 0.156669
vt 0.270668 0.830867
vt 0.254346 0.960516
vt 0.180265 0.993146
vt 0.199126 0.843331
vt 0.727044 0.329388
vt 0.710722 0.459036
vt 0.636641 0.491667
vt 0.655502 0.341851
vt 0.993767 0.039484
vt 0.913929 0.006854
vt 0.270668 0.670612
vt 0.199126 0.658149
vt 0.413207 0.100407
vt 0.450143 0.251780
vt 0.324430 0.197131
vt 0.054076 0.100408
vt 0.168424 0.006854
vt 0.208447 0.096296
vt 0.085199 0.197131
vt 0.150776 0.496706
vt 0.043169 0.403153
vt 0.125010 0.360286
vt 0.402300 0.403153
vt 0.272863 0.360286
vt 0.305600 0.006854
vt 0.006233 0.251780
vt 0.287952 0.496706
vt 0.553984 0.157464
vt 0.535285 0.008935
vt 0.635669 0.837496
vt 0.654368 0.986026
vt 0.810083 0.341056
vt 0.810083 0.157464
vt 0.078909 0.991065
vt 0.097607 0.842536
vt 0.535285 0.489586
vt 0.553984 0.341056
vt 0.810964 0.008935
vt 0.097608 0.658944
vt 0.635669 0.653904
vt 0.810964 0.489586
vt 0.739510 0.331480
vt 0.739510 0.167041
vt 0.006233 0.965992
vt 0.022981 0.832959
vt 0.462609 0.464513
vt 0.479357 0.331480
vt 0.654368 0.505375
vt 0.727044 0.530447
vt 0.710296 0.663481
vt 0.022981 0.668520
vt 0.479357 0.167041
vt 0.710296 0.827919
vt 0.078909 0.510414
vt 0.006233 0.535487
vt 0.462609 0.034008
vt 0.727044 0.960953
vt 0.193064 0.238356
vn 0.4498 0.6226 0.6402
vn 0.0124 0.6226 0.7824
vn 0.0000 0.1947 0.9808
vn 0.5765 0.1947 0.7935
vn -0.7403 0.6226 0.2535
vn -0.7403 0.6226 -0.2535
vn -0.9328 0.1947 -0.3031
vn -0.9328 0.1947 0.3031
vn 0.0124 0.6226 -0.7824
vn 0.4498 0.6226 -0.6402
vn 0.5765 0.1947 -0.7935
vn 0.0000 0.1947 -0.9808
vn 0.7479 0.6226 0.2300
vn 0.9328 0.1947 0.3031
vn -0.4699 0.6226 0.6257
vn -0.5765 0.1947 0.7935
vn -0.4699 0.6226 -0.6257
vn -0.5765 0.1947 -0.7935
vn 0.7479 0.6226 -0.2300
vn 0.9328 0.1947 -0.3031
vn -0.4223 0.9065 0.0000
vn -0.1305 0.9065 -0.4016
vn 0.3416 0.9065 -0.2482
vn 0.3416 0.9065 0.2482
vn -0.1305 0.9065 0.4016
vn 0.5767 -0.1929 -0.7938
vn 0.0000 -0.1929 -0.9812
vn 0.5767 -0.1929 0.7938
vn 0.9332 -0.1929 0.3032
vn -0.9332 -0.1929 0.3032
vn -0.5767 -0.1929 0.7938
vn -0.5767 -0.1929 -0.7938
vn 0.9332 -0.1929 -0.3032
vn 0.0000 -0.1929 0.9812
vn -0.9332 -0.1929 -0.3032
vn -0.8836 -0.3698 0.2871
vn -0.5461 -0.3698 0.7517
vn 0.0000 -0.3698 -0.9291
vn -0.5461 -0.3698 -0.7517
vn 0.8836 -0.3698 0.2871
vn 0.8836 -0.3698 -0.2871
vn 0.0000 -0.3698 0.9291
vn -0.8836 -0.3698 -0.2871
vn 0.5461 -0.3698 -0.7517
vn 0.5461 -0.3698 0.7517
vn 0.0000 1.0000 0.0000
usemtl material
s 1
f 7/1/1 6/2/2 16/3/3 17/4/4
f 4/5/5 3/6/6 13/7/7 14/8/8
f 1/9/9 10/10/10 20/11/11 11/12/12
f 8/13/13 7/1/1 17/4/4 18/14/14
f 5/15/15 4/5/5 14/8/8 15/16/16
f 2/17/17 1/18/9 11/19/12 12/20/18
f 9/21/19 8/22/13 18/23/14 19/24/20
f 6/25/2 5/15/15 15/16/16 16/26/3
f 3/27/6 2/17/17 12/20/18 13/28/7
f 10/10/10 9/21/19 19/24/20 20/11/11
f 3/29/6 4/30/5 23/31/21
f 10/32/10 1/33/9 21/34/22 26/35/23
f 7/36/1 8/37/13 25/38/24
f 4/30/5 5/39/15 24/40/25 23/31/21
f 1/33/9 2/41/17 21/34/22
f 8/37/13 9/42/19 26/35/23 25/38/24
f 5/39/15 6/43/2 24/40/25
f 2/41/17 3/29/6 23/31/21 21/34/22
f 9/42/19 10/32/10 26/35/23
f 6/43/2 7/36/1 25/38/24 24/40/25
f 11/12/12 20/11/11 36/44/26 27/45/27
f 18/14/14 17/4/4 33/46/28 34/47/29
f 15/16/16 14/8/8 30/48/30 31/49/31
f 12/20/18 11/19/12 27/50/27 28/51/32
f 19/24/20 18/23/14 34/52/29 35/53/33
f 16/26/3 15/16/16 31/49/31 32/54/34
f 13/28/7 12/20/18 28/51/32 29/55/35
f 20/11/11 19/24/20 35/53/33 36/44/26
f 17/4/4 16/3/3 32/56/34 33/46/28
f 14/8/8 13/7/7 29/57/35 30/48/30
f 31/49/31 30/48/30 40/58/36 41/59/37
f 28/51/32 27/50/27 37/60/38 38/61/39
f 35/53/33 34/52/29 44/62/40 45/63/41
f 32/56/34 31/64/31 41/65/37 42/66/42
f 29/55/35 28/51/32 38/61/39 39/67/43
f 36/44/26 35/53/33 45/63/41 46/68/44
f 33/46/28 32/56/34 42/66/42 43/69/45
f 30/70/30 29/55/35 39/67/43 40/71/36
f 27/45/27 36/44/26 46/68/44 37/72/38
f 34/47/29 33/46/28 43/69/45 44/73/40
f 24/40/25 25/38/24 22/74/46
f 23/31/21 24/40/25 22/74/46
f 21/34/22 23/31/21 22/74/46
f 25/38/24 26/35/23 22/74/46
f 26/35/23 21/34/22 22/74/46
